<svg version="1.2" xmlns="http://www.w3.org/2000/svg" viewBox="0 0 800 800" width="800" height="800"><style>.a{fill:#4596d4}.b{fill:#fff}</style><path class="a" d="m30 230c0-110.5 89.5-200 200-200h340c110.5 0 200 89.5 200 200v340c0 110.5-89.5 200-200 200h-340c-110.5 0-200-89.5-200-200z"/><path class="b" d="m88.1 478.6h166.1l9.2-55.2h-184.5l23.1-161.4h271.9l-9.2 78.2h-92.2l4.8-32.1h-87.9l-13.9 69.2h184.4l-18.3 124.4q0 6.6-3.1 12.7-3.1 6-8.4 10.3-5.3 4.3-11.7 6.7-6.5 2.4-13.7 2.4h-239.7l9.1-73.9zm347.2-216.6h111l-13.9 82.5 97-82.5h105.7l-156.6 138.2 138.3 133.6h-110.5l-87.8-92.2-14 92.2h-87.4l32.2-253.6z"/></svg>